<?xml version="1.0" encoding="UTF-8"?>
<!DOCTYPE svg PUBLIC "-//W3C//DTD SVG 1.1//EN" "http://www.w3.org/Graphics/SVG/1.1/DTD/svg11.dtd">
<!-- Creator: CorelDRAW 2020 (64 Bit) -->
<svg xmlns="http://www.w3.org/2000/svg" xml:space="preserve" width="1748px" height="1240px" version="1.1" style="shape-rendering:geometricPrecision; text-rendering:geometricPrecision; image-rendering:optimizeQuality; fill-rule:evenodd; clip-rule:evenodd"
viewBox="0 0 174800 124014"
 xmlns:xlink="http://www.w3.org/1999/xlink"
 xmlns:xodm="http://www.corel.com/coreldraw/odm/2003"
 xmlns:dc="http://purl.org/dc/elements/1.1/"
 xmlns:cc="http://creativecommons.org/ns#"
 xmlns:rdf="http://www.w3.org/1999/02/22-rdf-syntax-ns#"
 xmlns:svg="http://www.w3.org/2000/svg"
 xmlns:sodipodi="http://sodipodi.sourceforge.net/DTD/sodipodi-0.dtd"
 xmlns:inkscape="http://www.inkscape.org/namespaces/inkscape"
 inkscape:version="0.92.4 (5da689c313, 2019-01-14)"
 sodipodi:docname="omint-logo.svg"
 inkscape:export-filename="C:\Users\suitedoalex\sites\omint-logo-0.png"
 inkscape:export-xdpi="148.6263"
 inkscape:export-ydpi="148.6263">
 <defs>
  <style type="text/css">
   <![CDATA[
    .fil2 {fill:none;fill-rule:nonzero}
    .fil1 {fill:#002475;fill-rule:nonzero}
    .fil0 {fill:#7F91BA;fill-rule:nonzero}
   ]]>
  </style>
 </defs>
 <g id="Camada_x0020_1">
  <metadata id="CorelCorpID_0Corel-Layer"/>
  <sodipodi:namedview id="base" pagecolor="#ffffff" bordercolor="#666666" borderopacity="1.0" inkscape:pageopacity="0.0" inkscape:pageshadow="2" inkscape:zoom="0.0875" inkscape:cx="3268.6914" inkscape:cy="564.00084" inkscape:document-units="mm" inkscape:current-layer="layer1" showgrid="false" inkscape:window-width="1600" inkscape:window-height="837" inkscape:window-x="-8" inkscape:window-y="-8" inkscape:window-maximized="1"/>
  <g id="_293426841632">
   <g>
    <g id="g244" inkscape:export-filename="C:\Users\suitedoalex\sites\omint-logo-5.png" inkscape:export-xdpi="78.570946" inkscape:export-ydpi="78.570946">
     <path id="path246" class="fil0" d="M40270 46574c1989,4235 -1295,8227 -1295,8227 -5144,6543 1347,11482 1347,11482 -787,-4089 983,-6382 1723,-7164 192,-201 288,-344 288,-344 5646,-6397 -2063,-12201 -2063,-12201l0 0z" inkscape:connector-curvature="0"/>
    </g>
    <g id="g248" inkscape:export-filename="C:\Users\suitedoalex\sites\omint-logo-5.png" inkscape:export-xdpi="78.570946" inkscape:export-ydpi="78.570946">
     <g>
      <path id="path250" class="fil1" d="M143774 54531l0 10226c44,2063 44,3363 3006,3363 985,0 1434,-44 2241,-133l0 4349c-2154,583 -4079,720 -5156,720 -6683,0 -6683,-4220 -6683,-6101l0 -23680 4905 0c931,1 1690,756 1690,1685l0 9 0 2960 -3 0 0 2207 5380 0 0 4395 -5380 0 0 0zm-10803 5876l0 12242 -5079 0c-932,0 -1688,-756 -1688,-1685l0 -8 -5 -12389c0,-942 0,-1749 -357,-2465 -494,-987 -1526,-1929 -3232,-1929 -1432,0 -2735,673 -3452,1749 -405,584 -807,1703 -807,3454l0 13273 -6683 0 0 -18611c0,-89 0,-2555 -134,-4128l978 0 0 -6 3691 0c934,0 1731,759 1785,1687l1 8 1 0 97 1713c633,-1040 2430,-3939 7349,-3939 4441,0 6325,2693 6906,4260 495,1391 629,2559 629,6774l0 0 0 0zm-37097 -538l0 12780 -4995 0c-933,0 -1688,-756 -1688,-1685l0 -8 0 -11626c0,-2421 -359,-5113 -3812,-5113 -3993,0 -4080,3724 -4080,7086l0 11346 -6683 0 0 -13454c0,-1747 -45,-4978 -3723,-4978 -4171,0 -4171,3589 -4171,5113l0 13319 -6681 0 0 -18387c0,-1435 -91,-2826 -226,-4259l421 0 0 -3 4304 0c931,0 1745,758 1816,1689l0 6 3 0 92 1220c718,-984 2467,-3406 6999,-3406 5201,0 6683,3183 7131,4260 1884,-3634 4933,-4216 7264,-4216 4575,0 6415,2736 6908,3634 1210,1973 1121,4708 1121,6682l0 0 0 0zm4535 -9911l6638 0 0 22691 -6638 0 0 -22691zm-68115 6725c0,-3676 538,-7174 2380,-9417 1299,-1659 3362,-2736 5962,-2736 3320,0 6056,1749 7401,5741 673,1973 809,4216 809,5786 0,5157 -1122,7669 -2198,9283 -1302,2019 -3230,3006 -6056,3006 -3229,0 -4887,-1257 -5876,-2601 -1928,-2513 -2422,-5966 -2422,-9062l0 0 0 0zm-7264 226c0,2960 447,8340 3991,12108 2962,3095 7221,4442 11482,4442 2691,0 7938,-585 11525,-4623 2646,-2958 4081,-7981 4081,-12690 0,-3184 -671,-8253 -4125,-12198 -3185,-3589 -7936,-4397 -11392,-4397 -11661,0 -15562,8747 -15562,17358l0 0zm82329 -13734c0,2006 -1627,3633 -3634,3633 -2001,0 -3630,-1627 -3630,-3633 0,-2006 1629,-3631 3630,-3631 2007,0 3634,1625 3634,3631z" inkscape:connector-curvature="0"/>
     </g>
    </g>
   </g>
   <g>
    <path id="path254" class="fil0" d="M138251 77183c-2337,0 -3988,1791 -3988,3930l0 22c0,2142 1628,3912 3967,3912 2336,0 3988,-1793 3988,-3934l0 -21c0,-2140 -1632,-3909 -3967,-3909l0 0 0 0zm0 6626c-1511,0 -2585,-1217 -2585,-2696l0 -21c0,-1477 1052,-2684 2563,-2684 1511,0 2587,1228 2587,2705l0 22c0,1480 -1056,2674 -2565,2674l0 0zm7918 -6606c-1510,0 -2596,904 -2596,2206l0 22c0,1399 913,1880 2531,2270 1411,326 1715,618 1715,1161l0 23c0,568 -519,955 -1344,955 -825,0 -1502,-280 -2130,-781 -89,-65 -207,-119 -390,-119 -351,0 -633,272 -633,620 0,216 109,402 260,511 849,630 1826,955 2859,955 1597,0 2714,-846 2714,-2271l0 -23c0,-1259 -822,-1833 -2433,-2227 -1465,-345 -1812,-607 -1812,-1194l0 -21c0,-502 457,-902 1238,-902 598,0 1163,195 1749,576 109,64 218,97 349,97 345,0 630,-273 630,-619 0,-262 -142,-446 -298,-534 -681,-455 -1452,-705 -2409,-705l0 0zm-47999 0c-1510,0 -2598,904 -2598,2206l0 22c0,1399 914,1880 2531,2270 1413,326 1719,618 1719,1161l0 23c0,568 -524,955 -1349,955 -827,0 -1500,-280 -2130,-781 -86,-65 -205,-119 -390,-119 -349,0 -631,272 -631,620 0,216 110,402 260,511 851,630 1827,955 2857,955 1597,0 2718,-846 2718,-2271l0 -23c0,-1259 -827,-1833 -2434,-2227 -1466,-345 -1815,-607 -1815,-1194l0 -21c0,-502 459,-902 1241,-902 595,0 1160,195 1746,576 112,64 218,97 349,97 348,0 632,-273 632,-619 0,-262 -142,-446 -294,-534 -687,-455 -1457,-705 -2412,-705l0 0zm9657 108l-4421 0c-384,0 -676,292 -676,675l0 6258c0,379 292,672 676,672l4476 0c325,0 597,-259 597,-595 0,-328 -272,-600 -597,-600l-3815 0 0 -2041 3270 0c327,0 597,-261 597,-587 0,-337 -270,-608 -597,-608l-3270 0 0 -1979 3760 0c325,0 597,-261 597,-598 0,-324 -272,-597 -597,-597l0 0zm5769 -128c-2294,0 -3926,1802 -3926,3932l0 20c0,2218 1565,3912 3945,3912 1140,0 2052,-391 2706,-825 315,-195 467,-467 467,-847l0 -2033c0,-379 -293,-673 -674,-673l-2118 0c-326,0 -597,262 -597,587 0,326 271,575 597,575l1498 0 0 1423c-465,350 -1118,578 -1835,578 -1553,0 -2587,-1152 -2587,-2717l0 -23c0,-1456 1066,-2683 2467,-2683 826,0 1358,241 1848,596 107,79 239,153 415,153 367,0 660,-305 660,-663 0,-258 -141,-445 -271,-542 -697,-499 -1457,-770 -2595,-770l0 0zm10654 73c-380,0 -673,295 -673,664l0 3771c0,1401 -729,2106 -1913,2106 -1194,0 -1923,-747 -1923,-2162l0 -3715c0,-369 -293,-664 -662,-664 -380,0 -674,295 -674,664l0 3771c0,2206 1261,3348 3237,3348 1987,0 3271,-1142 3271,-3415l0 -3704c0,-369 -293,-664 -663,-664l0 0zm5888 55l-2716 0c-382,0 -674,293 -674,675l0 6324c0,368 292,661 674,661 369,0 662,-293 662,-661l0 -2045 1686 0 1846 2359c150,207 346,347 651,347 327,0 639,-251 639,-620 0,-206 -86,-347 -217,-508l-1455 -1838c1021,-315 1728,-1053 1728,-2270l0 -23c0,-662 -228,-1227 -628,-1639 -492,-478 -1242,-762 -2196,-762l0 0 0 0zm-2054 3771l0 -2555 1946 0c986,0 1574,447 1574,1261l0 23c0,772 -610,1271 -1565,1271l-1955 0z" inkscape:connector-curvature="0"/>
   </g>
  </g>
  <rect class="fil2" x="15134" y="30090" width="143917" height="64412"/>
 </g>
</svg>
